<svg width="246" height="192" viewBox="0 0 246 192" fill="none" xmlns="http://www.w3.org/2000/svg">
<path d="M3.584 105.16C3.584 97.8213 4.94933 91.3787 7.68 85.832C10.496 80.2853 14.2933 76.0187 19.072 73.032C23.8507 70.0453 29.184 68.552 35.072 68.552C40.1067 68.552 44.5013 69.576 48.256 71.624C52.096 73.672 55.04 76.36 57.088 79.688V69.576H78.976V141H57.088V130.888C54.9547 134.216 51.968 136.904 48.128 138.952C44.3733 141 39.9787 142.024 34.944 142.024C29.1413 142.024 23.8507 140.531 19.072 137.544C14.2933 134.472 10.496 130.163 7.68 124.616C4.94933 118.984 3.584 112.499 3.584 105.16ZM57.088 105.288C57.088 99.8267 55.552 95.5173 52.48 92.36C49.4933 89.2027 45.824 87.624 41.472 87.624C37.12 87.624 33.408 89.2027 30.336 92.36C27.3493 95.432 25.856 99.6987 25.856 105.16C25.856 110.621 27.3493 114.973 30.336 118.216C33.408 121.373 37.12 122.952 41.472 122.952C45.824 122.952 49.4933 121.373 52.48 118.216C55.552 115.059 57.088 110.749 57.088 105.288ZM116.699 46.28V141H94.811V46.28H116.699ZM154.449 46.28V141H132.561V46.28H154.449ZM202.823 142.024C195.826 142.024 189.511 140.531 183.879 137.544C178.332 134.557 173.938 130.291 170.695 124.744C167.538 119.197 165.959 112.712 165.959 105.288C165.959 97.9493 167.58 91.5067 170.823 85.96C174.066 80.328 178.503 76.0187 184.135 73.032C189.767 70.0453 196.082 68.552 203.079 68.552C210.076 68.552 216.391 70.0453 222.023 73.032C227.655 76.0187 232.092 80.328 235.335 85.96C238.578 91.5067 240.199 97.9493 240.199 105.288C240.199 112.627 238.535 119.112 235.207 124.744C231.964 130.291 227.484 134.557 221.767 137.544C216.135 140.531 209.82 142.024 202.823 142.024ZM202.823 123.08C207.004 123.08 210.546 121.544 213.447 118.472C216.434 115.4 217.927 111.005 217.927 105.288C217.927 99.5707 216.476 95.176 213.575 92.104C210.759 89.032 207.26 87.496 203.079 87.496C198.812 87.496 195.271 89.032 192.455 92.104C189.639 95.0907 188.231 99.4853 188.231 105.288C188.231 111.005 189.596 115.4 192.327 118.472C195.143 121.544 198.642 123.08 202.823 123.08Z" fill="#494A4A"/>
<rect x="203" y="61" width="43" height="45" fill="white"/>
<path fill-rule="evenodd" clip-rule="evenodd" d="M239.243 97.6885C238.51 93.2915 237.082 89.2782 234.96 85.6485C231.717 80.0165 227.28 75.7072 221.648 72.7205C218.335 70.9636 214.786 69.7234 211 69V89.8058C211.775 90.3753 212.508 91.0375 213.2 91.7925C214.715 93.397 215.835 95.3624 216.559 97.6885H239.243Z" fill="#3BB730"/>
</svg>
